<svg width="69" height="69" viewBox="0 0 69 69" fill="none" xmlns="http://www.w3.org/2000/svg">
<g clip-path="url(#clip0_21_83)">
<path d="M26.2678 48.0802C26.8687 48.0802 27.3557 47.5931 27.3557 46.9923C27.3557 46.3914 26.8687 45.9043 26.2678 45.9043C12.9836 45.9043 2.17595 35.0967 2.17595 21.8123C2.17595 21.2115 1.6888 20.7244 1.08797 20.7244C0.487007 20.7244 0 21.2115 0 21.8123C0 28.8342 2.73068 35.432 7.68945 40.3907C12.6479 45.3493 19.2459 48.0802 26.2678 48.0802V48.0802Z" fill="black"/>
<path d="M61.1151 28.4139C56.1566 23.4552 49.5585 20.7244 42.5368 20.7244C41.9358 20.7244 41.4488 21.2115 41.4488 21.8123C41.4488 22.4132 41.9358 22.9003 42.5368 22.9003C55.8209 22.9003 66.6286 33.7079 66.6286 46.9923C66.6286 47.5931 67.1156 48.0802 67.7166 48.0802C68.3174 48.0802 68.8045 47.5931 68.8045 46.9923C68.8045 39.9705 66.0738 33.3724 61.1151 28.4139V28.4139Z" fill="black"/>
<path d="M38.3221 48.2873C37.8973 47.8624 37.2086 47.8624 36.7834 48.2873C27.3901 57.6807 12.1055 57.6806 2.71249 48.2873C2.28757 47.8624 1.59885 47.8624 1.17379 48.2873C0.748872 48.7121 0.748872 49.401 1.17379 49.8259C6.13915 54.7912 12.7354 57.5256 19.7479 57.5256C26.7605 57.5256 33.3567 54.7913 38.322 49.8259C38.747 49.4011 38.7469 48.7122 38.3221 48.2873Z" fill="black"/>
<path d="M30.4826 20.5171C30.695 20.7296 30.9735 20.8359 31.252 20.8359C31.5305 20.8359 31.8088 20.7297 32.0215 20.5171C41.4148 11.124 56.6991 11.1239 66.0922 20.5171C66.5171 20.9421 67.2058 20.9421 67.6309 20.5171C68.0558 20.0923 68.0558 19.4035 67.6309 18.9785C62.6656 14.0133 56.0694 11.2788 49.0568 11.2788C42.0443 11.2788 35.4479 14.0133 30.4827 18.9785C30.0576 19.4033 30.0576 20.0922 30.4826 20.5171Z" fill="black"/>
<path d="M46.9922 41.4487C46.3914 41.4487 45.9042 41.9359 45.9042 42.5367C45.9041 55.821 35.0965 66.6286 21.8123 66.6286C21.2113 66.6286 20.7243 67.1158 20.7243 67.7166C20.7243 68.3175 21.2113 68.8046 21.8123 68.8046C28.8342 68.8046 35.432 66.0739 40.3905 61.1151C45.3492 56.1565 48.08 49.5585 48.0802 42.5367C48.0803 41.9359 47.5933 41.4487 46.9922 41.4487Z" fill="black"/>
<path d="M21.8124 27.3557C22.4132 27.3557 22.9004 26.8686 22.9005 26.2678C22.9007 19.8271 25.405 13.7754 29.9527 9.22783C34.5003 4.6801 40.5517 2.1757 46.9923 2.17597C47.5932 2.17597 48.0803 1.68882 48.0803 1.08798C48.0803 0.487147 47.5933 0 46.9923 0C46.9919 0 46.9921 0 46.9915 0C39.9702 0 33.3724 2.73071 28.414 7.68912C23.4554 12.6478 20.7244 19.2459 20.7243 26.2679C20.7243 26.8686 21.2113 27.3557 21.8124 27.3557V27.3557Z" fill="black"/>
<path d="M48.2872 30.4825C47.8623 30.9073 47.8623 31.5962 48.2872 32.0211C57.6804 41.4145 57.6803 56.6989 48.287 66.0923C47.862 66.5171 47.862 67.206 48.287 67.6309C48.4994 67.8434 48.778 67.9497 49.0564 67.9497C49.3349 67.9497 49.6133 67.8434 49.8259 67.631C54.791 62.6658 57.5254 56.0693 57.5254 49.0567C57.5256 42.0442 54.7913 35.4478 49.8262 30.4825C49.4011 30.0576 48.7123 30.0576 48.2872 30.4825V30.4825Z" fill="black"/>
<path d="M19.7481 38.6409C20.0266 38.6409 20.305 38.5346 20.5175 38.3221C20.9424 37.8973 20.9424 37.2085 20.5175 36.7835C11.1242 27.39 11.1242 12.1054 20.5175 2.71202C20.9424 2.28709 20.9424 1.59824 20.5175 1.17331C20.0925 0.748383 19.4038 0.748383 18.9788 1.17331C14.0137 6.13858 11.2792 12.735 11.2792 19.7476C11.2792 26.7603 14.0135 33.3567 18.9788 38.3221C19.1912 38.5347 19.4697 38.6409 19.7481 38.6409Z" fill="black"/>
<path d="M40.719 37.4454C41.2939 37.6185 41.9014 37.2927 42.0747 36.7175C42.3003 35.9694 42.4146 35.1904 42.4146 34.4022C42.4146 29.9842 38.8202 26.3898 34.4022 26.3898C29.9842 26.3898 26.39 29.9842 26.39 34.4022C26.39 38.8203 29.9843 42.4148 34.4022 42.4148C36.498 42.4148 38.4803 41.6111 39.9833 40.1511C40.4143 39.7326 40.4246 39.0438 40.0059 38.6126C39.5875 38.1817 38.8987 38.1713 38.4674 38.5901C37.3725 39.6533 35.9287 40.239 34.4019 40.239C31.1838 40.239 28.5656 37.6208 28.5656 34.4025C28.5656 31.1844 31.1838 28.5661 34.4019 28.5661C37.62 28.5661 40.2382 31.1844 40.2382 34.4025C40.2382 34.9778 40.155 35.5454 39.9911 36.0898C39.8179 36.6651 40.1438 37.272 40.719 37.4454V37.4454Z" fill="black"/>
<path d="M34.3122 42.655C38.8202 42.655 42.4747 39.0005 42.4747 34.4925C42.4747 29.9844 38.8202 26.33 34.3122 26.33C29.8042 26.33 26.1498 29.9844 26.1498 34.4925C26.1498 39.0005 29.8042 42.655 34.3122 42.655Z" fill="black" stroke="black" stroke-width="0.29974"/>
</g>
<defs>
<clipPath id="clip0_21_83">
<rect width="68.8046" height="68.8046" fill="white"/>
</clipPath>
</defs>
</svg>
