<svg width="194" height="65" viewBox="0 0 194 65" fill="none" xmlns="http://www.w3.org/2000/svg">
<path d="M7.26898 14.4469H16.0557V17.7322H7.26898V14.4469ZM7.58186 21.956H17.5158V25.3456H3.38406V7.09425H17.1768V10.4838H7.58186V21.956ZM24.2692 25.3456L18.3766 11.3181H22.5744L27.4762 23.3901H25.3903L30.4746 11.3181H34.3856L28.467 25.3456H24.2692ZM42.625 25.5542C41.0259 25.5542 39.6179 25.2413 38.4011 24.6155C37.2018 23.9898 36.2718 23.138 35.6113 22.0603C34.9508 20.9653 34.6205 19.7224 34.6205 18.3319C34.6205 16.9239 34.9421 15.6811 35.5852 14.6034C36.2457 13.5083 37.1409 12.6566 38.2708 12.0482C39.4006 11.4224 40.6782 11.1095 42.1036 11.1095C43.4767 11.1095 44.7109 11.405 45.806 11.996C46.9184 12.5697 47.7962 13.404 48.4394 14.4991C49.0825 15.5768 49.4041 16.8718 49.4041 18.384C49.4041 18.5404 49.3954 18.723 49.378 18.9315C49.3606 19.1227 49.3432 19.3053 49.3259 19.4791H37.9318V17.1064H47.1879L45.6235 17.8104C45.6235 17.0803 45.4757 16.4459 45.1802 15.907C44.8847 15.3682 44.4762 14.951 43.9548 14.6555C43.4333 14.3426 42.8249 14.1862 42.1296 14.1862C41.4343 14.1862 40.8173 14.3426 40.2784 14.6555C39.757 14.951 39.3485 15.3769 39.053 15.9331C38.7575 16.472 38.6097 17.1151 38.6097 17.8625V18.4883C38.6097 19.2531 38.7749 19.931 39.1051 20.522C39.4528 21.0956 39.9308 21.5389 40.5392 21.8518C41.1649 22.1473 41.895 22.295 42.7293 22.295C43.4767 22.295 44.1286 22.182 44.6848 21.956C45.2584 21.7301 45.7799 21.3911 46.2492 20.9392L48.4133 23.2858C47.7702 24.0158 46.9619 24.5808 45.9885 24.9806C45.0151 25.363 43.8939 25.5542 42.625 25.5542ZM60.638 11.1095C61.7505 11.1095 62.7413 11.3355 63.6104 11.7875C64.4969 12.222 65.1922 12.8999 65.6962 13.8212C66.2003 14.725 66.4524 15.8897 66.4524 17.315V25.3456H62.3849V17.9408C62.3849 16.8109 62.1329 15.9766 61.6288 15.4377C61.1421 14.8989 60.4468 14.6294 59.5429 14.6294C58.8998 14.6294 58.3175 14.7685 57.796 15.0466C57.2919 15.3074 56.8921 15.7158 56.5967 16.2721C56.3185 16.8283 56.1795 17.541 56.1795 18.4101V25.3456H52.112V11.3181H55.997V15.2031L55.2669 14.0298C55.771 13.0911 56.4924 12.3698 57.431 11.8657C58.3696 11.3616 59.4386 11.1095 60.638 11.1095ZM75.8754 25.5542C74.2241 25.5542 72.9378 25.137 72.0166 24.3026C71.0953 23.4509 70.6347 22.1907 70.6347 20.522V8.21541H74.7021V20.4699C74.7021 21.0609 74.8586 21.5215 75.1714 21.8518C75.4843 22.1646 75.9102 22.3211 76.449 22.3211C77.0922 22.3211 77.6397 22.1473 78.0917 21.7996L79.1867 24.6677C78.7696 24.9632 78.2655 25.1891 77.6745 25.3456C77.1009 25.4846 76.5012 25.5542 75.8754 25.5542ZM68.4706 14.7598V11.631H78.196V14.7598H68.4706ZM101.656 7.09425H105.88V25.3456H101.656V7.09425ZM93.3647 25.3456H89.1408V7.09425H93.3647V25.3456ZM101.969 17.8625H93.0518V14.2905H101.969V17.8625ZM116.586 25.5542C115.091 25.5542 113.761 25.2413 112.597 24.6155C111.45 23.9898 110.537 23.138 109.859 22.0603C109.199 20.9653 108.868 19.7224 108.868 18.3319C108.868 16.9239 109.199 15.6811 109.859 14.6034C110.537 13.5083 111.45 12.6566 112.597 12.0482C113.761 11.4224 115.091 11.1095 116.586 11.1095C118.064 11.1095 119.385 11.4224 120.549 12.0482C121.714 12.6566 122.626 13.4996 123.287 14.5773C123.947 15.655 124.278 16.9065 124.278 18.3319C124.278 19.7224 123.947 20.9653 123.287 22.0603C122.626 23.138 121.714 23.9898 120.549 24.6155C119.385 25.2413 118.064 25.5542 116.586 25.5542ZM116.586 22.2168C117.264 22.2168 117.872 22.0603 118.411 21.7475C118.95 21.4346 119.376 20.9913 119.689 20.4177C120.002 19.8267 120.158 19.1314 120.158 18.3319C120.158 17.5149 120.002 16.8196 119.689 16.246C119.376 15.6724 118.95 15.2291 118.411 14.9163C117.872 14.6034 117.264 14.4469 116.586 14.4469C115.908 14.4469 115.3 14.6034 114.761 14.9163C114.222 15.2291 113.788 15.6724 113.457 16.246C113.144 16.8196 112.988 17.5149 112.988 18.3319C112.988 19.1314 113.144 19.8267 113.457 20.4177C113.788 20.9913 114.222 21.4346 114.761 21.7475C115.3 22.0603 115.908 22.2168 116.586 22.2168ZM126.996 25.3456V11.3181H130.881V15.2813L130.334 14.1341C130.751 13.1433 131.42 12.3958 132.341 11.8917C133.263 11.3703 134.384 11.1095 135.705 11.1095V14.8641C135.531 14.8467 135.375 14.838 135.236 14.838C135.097 14.8206 134.949 14.812 134.792 14.812C133.68 14.812 132.776 15.1335 132.081 15.7767C131.403 16.4024 131.064 17.3845 131.064 18.723V25.3456H126.996ZM138.149 25.3456V11.3181H142.216V25.3456H138.149ZM140.183 9.36263C139.435 9.36263 138.827 9.14536 138.358 8.7108C137.888 8.27625 137.654 7.7374 137.654 7.09425C137.654 6.45111 137.888 5.91226 138.358 5.47771C138.827 5.04315 139.435 4.82587 140.183 4.82587C140.93 4.82587 141.538 5.03446 142.008 5.45164C142.477 5.85143 142.712 6.37289 142.712 7.01604C142.712 7.69394 142.477 8.25886 142.008 8.7108C141.556 9.14536 140.947 9.36263 140.183 9.36263ZM145.027 25.3456V22.8947L153.318 13.0911L154.022 14.4469H145.209V11.3181H157.307V13.769L149.016 23.5726L148.286 22.2168H157.542V25.3456H145.027ZM166.645 25.5542C165.15 25.5542 163.82 25.2413 162.656 24.6155C161.508 23.9898 160.596 23.138 159.918 22.0603C159.257 20.9653 158.927 19.7224 158.927 18.3319C158.927 16.9239 159.257 15.6811 159.918 14.6034C160.596 13.5083 161.508 12.6566 162.656 12.0482C163.82 11.4224 165.15 11.1095 166.645 11.1095C168.122 11.1095 169.443 11.4224 170.608 12.0482C171.773 12.6566 172.685 13.4996 173.346 14.5773C174.006 15.655 174.336 16.9065 174.336 18.3319C174.336 19.7224 174.006 20.9653 173.346 22.0603C172.685 23.138 171.773 23.9898 170.608 24.6155C169.443 25.2413 168.122 25.5542 166.645 25.5542ZM166.645 22.2168C167.323 22.2168 167.931 22.0603 168.47 21.7475C169.009 21.4346 169.435 20.9913 169.748 20.4177C170.06 19.8267 170.217 19.1314 170.217 18.3319C170.217 17.5149 170.06 16.8196 169.748 16.246C169.435 15.6724 169.009 15.2291 168.47 14.9163C167.931 14.6034 167.323 14.4469 166.645 14.4469C165.967 14.4469 165.359 14.6034 164.82 14.9163C164.281 15.2291 163.846 15.6724 163.516 16.246C163.203 16.8196 163.047 17.5149 163.047 18.3319C163.047 19.1314 163.203 19.8267 163.516 20.4177C163.846 20.9913 164.281 21.4346 164.82 21.7475C165.359 22.0603 165.967 22.2168 166.645 22.2168ZM185.581 11.1095C186.694 11.1095 187.684 11.3355 188.554 11.7875C189.44 12.222 190.135 12.8999 190.639 13.8212C191.143 14.725 191.396 15.8897 191.396 17.315V25.3456H187.328V17.9408C187.328 16.8109 187.076 15.9766 186.572 15.4377C186.085 14.8989 185.39 14.6294 184.486 14.6294C183.843 14.6294 183.261 14.7685 182.739 15.0466C182.235 15.3074 181.835 15.7158 181.54 16.2721C181.262 16.8283 181.123 17.541 181.123 18.4101V25.3456H177.055V11.3181H180.94V15.2031L180.21 14.0298C180.714 13.0911 181.436 12.3698 182.374 11.8657C183.313 11.3616 184.382 11.1095 185.581 11.1095Z" fill="black"/>
<path d="M0.985311 57.2129L9.12019 38.9616H13.2919L21.4529 57.2129H17.0204L10.3456 41.0996H12.0143L5.31348 57.2129H0.985311ZM5.05275 53.3019L6.1739 50.0949H15.5603L16.7075 53.3019H5.05275ZM23.0596 57.2129V43.1854H26.9446V47.1486L26.397 46.0014C26.8142 45.0106 27.4834 44.2631 28.4047 43.7591C29.3259 43.2376 30.4471 42.9769 31.7681 42.9769V46.7314C31.5943 46.714 31.4379 46.7053 31.2988 46.7053C31.1597 46.688 31.012 46.6793 30.8556 46.6793C29.7431 46.6793 28.8392 47.0008 28.1439 47.644C27.466 48.2697 27.1271 49.2518 27.1271 50.5903V57.2129H23.0596ZM40.8638 57.4215C39.3516 57.4215 38.0045 57.1173 36.8225 56.5089C35.6405 55.8832 34.7105 55.0227 34.0326 53.9277C33.3721 52.8326 33.0419 51.5897 33.0419 50.1992C33.0419 48.7912 33.3721 47.5484 34.0326 46.4707C34.7105 45.3756 35.6405 44.5239 36.8225 43.9155C38.0045 43.2897 39.3516 42.9769 40.8638 42.9769C42.3413 42.9769 43.6276 43.2897 44.7227 43.9155C45.8178 44.5239 46.6261 45.4017 47.1475 46.5489L43.9926 48.2437C43.6276 47.5831 43.167 47.0964 42.6108 46.7836C42.0719 46.4707 41.4809 46.3142 40.8378 46.3142C40.1425 46.3142 39.5167 46.4707 38.9605 46.7836C38.4043 47.0964 37.961 47.5397 37.6308 48.1133C37.3179 48.6869 37.1614 49.3822 37.1614 50.1992C37.1614 51.0161 37.3179 51.7114 37.6308 52.285C37.961 52.8586 38.4043 53.3019 38.9605 53.6148C39.5167 53.9277 40.1425 54.0841 40.8378 54.0841C41.4809 54.0841 42.0719 53.9363 42.6108 53.6408C43.167 53.328 43.6276 52.8326 43.9926 52.1547L47.1475 53.8755C46.6261 55.0053 45.8178 55.8832 44.7227 56.5089C43.6276 57.1173 42.3413 57.4215 40.8638 57.4215ZM57.939 42.9769C59.0515 42.9769 60.0423 43.2028 60.9114 43.6548C61.7979 44.0893 62.4932 44.7672 62.9972 45.6885C63.5013 46.5924 63.7534 47.757 63.7534 49.1823V57.2129H59.6859V49.8081C59.6859 48.6782 59.4339 47.8439 58.9298 47.305C58.4431 46.7662 57.7478 46.4968 56.8439 46.4968C56.2008 46.4968 55.6185 46.6358 55.097 46.9139C54.5929 47.1747 54.1932 47.5831 53.8977 48.1394C53.6195 48.6956 53.4805 49.4083 53.4805 50.2774V57.2129H49.413V37.8665H53.4805V47.0704L52.5679 45.8971C53.072 44.9584 53.7934 44.2371 54.732 43.733C55.6706 43.2289 56.7396 42.9769 57.939 42.9769ZM67.4403 57.2129V43.1854H71.5077V57.2129H67.4403ZM69.474 41.2299C68.7266 41.2299 68.1182 41.0127 67.6489 40.5781C67.1796 40.1436 66.9449 39.6047 66.9449 38.9616C66.9449 38.3184 67.1796 37.7796 67.6489 37.345C68.1182 36.9105 68.7266 36.6932 69.474 36.6932C70.2215 36.6932 70.8298 36.9018 71.2992 37.3189C71.7685 37.7187 72.0031 38.2402 72.0031 38.8833C72.0031 39.5613 71.7685 40.1262 71.2992 40.5781C70.8472 41.0127 70.2388 41.2299 69.474 41.2299ZM79.0894 57.2129L73.1968 43.1854H77.3946L82.2964 55.2574H80.2105L85.2948 43.1854H89.2058L83.2872 57.2129H79.0894ZM97.4452 57.4215C95.846 57.4215 94.4381 57.1086 93.2213 56.4828C92.0219 55.8571 91.092 55.0053 90.4315 53.9277C89.7709 52.8326 89.4407 51.5897 89.4407 50.1992C89.4407 48.7912 89.7623 47.5484 90.4054 46.4707C91.0659 45.3756 91.9611 44.5239 93.091 43.9155C94.2208 43.2897 95.4984 42.9769 96.9237 42.9769C98.2969 42.9769 99.5311 43.2724 100.626 43.8633C101.739 44.437 102.616 45.2713 103.26 46.3664C103.903 47.4441 104.224 48.7391 104.224 50.2513C104.224 50.4078 104.216 50.5903 104.198 50.7989C104.181 50.9901 104.163 51.1726 104.146 51.3464H92.752V48.9737H102.008L100.444 49.6777C100.444 48.9476 100.296 48.3132 100 47.7743C99.7049 47.2355 99.2964 46.8183 98.7749 46.5228C98.2535 46.2099 97.6451 46.0535 96.9498 46.0535C96.2545 46.0535 95.6374 46.2099 95.0986 46.5228C94.5771 46.8183 94.1686 47.2442 93.8731 47.8004C93.5777 48.3393 93.4299 48.9824 93.4299 49.7298V50.3556C93.4299 51.1204 93.595 51.7983 93.9253 52.3893C94.2729 52.9629 94.751 53.4062 95.3593 53.7191C95.9851 54.0146 96.7151 54.1623 97.5495 54.1623C98.2969 54.1623 98.9488 54.0493 99.505 53.8234C100.079 53.5974 100.6 53.2584 101.069 52.8065L103.233 55.1531C102.59 55.8832 101.782 56.4481 100.809 56.8479C99.8353 57.2303 98.7141 57.4215 97.4452 57.4215Z" fill="#820500"/>
</svg>
