<svg width="150" height="150" viewBox="0 0 150 150" fill="none" xmlns="http://www.w3.org/2000/svg">
<rect width="150" height="150" rx="16" fill="black"/>
<g clip-path="url(#clip0_201_20)">
<path d="M58.7759 101.939C59.9375 101.939 60.8789 100.998 60.8789 99.8364C60.8789 98.675 59.9375 97.7333 58.7759 97.7333C33.0975 97.7333 12.2061 76.8422 12.2061 51.1634C12.2061 50.002 11.2645 49.0603 10.1031 49.0603C8.94139 49.0603 8 50.002 8 51.1634C8 64.7368 13.2784 77.4904 22.8638 87.0756C32.4486 96.6605 45.2026 101.939 58.7759 101.939V101.939Z" fill="white"/>
<path d="M126.136 63.9242C116.551 54.3391 103.797 49.0603 90.224 49.0603C89.0624 49.0603 88.121 50.002 88.121 51.1634C88.121 52.3248 89.0624 53.2665 90.224 53.2665C115.902 53.2665 136.794 74.1575 136.794 99.8364C136.794 100.998 137.735 101.939 138.897 101.939C140.058 101.939 141 100.998 141 99.8364C141 86.2633 135.721 73.5092 126.136 63.9242V63.9242Z" fill="white"/>
<path d="M82.077 102.34C81.2559 101.519 79.9246 101.519 79.1027 102.34C60.9453 120.497 31.4001 120.497 13.2433 102.34C12.4219 101.519 11.0906 101.519 10.269 102.34C9.44758 103.161 9.44758 104.493 10.269 105.314C19.867 114.912 32.6176 120.198 46.173 120.198C59.7283 120.198 72.4789 114.912 82.0767 105.314C82.8984 104.493 82.8981 103.161 82.077 102.34Z" fill="white"/>
<path d="M66.9231 48.6598C67.3337 49.0705 67.872 49.2759 68.4105 49.2759C68.9487 49.2759 69.4867 49.0707 69.8979 48.6598C88.0553 30.5027 117.6 30.5025 135.757 48.6598C136.578 49.4811 137.909 49.4811 138.731 48.6598C139.552 47.8386 139.552 46.5071 138.731 45.6857C129.133 36.0878 116.383 30.802 102.827 30.802C89.272 30.802 76.5211 36.0878 66.9233 45.6857C66.1017 46.5068 66.1017 47.8384 66.9231 48.6598Z" fill="white"/>
<path d="M98.8364 89.1208C97.675 89.1208 96.7333 90.0625 96.7333 91.2239C96.7331 116.903 75.8419 137.794 50.1633 137.794C49.0017 137.794 48.0603 138.736 48.0603 139.897C48.0603 141.058 49.0017 142 50.1633 142C63.7369 142 76.4903 136.722 86.0751 127.136C95.6605 117.551 100.939 104.797 100.939 91.2239C100.94 90.0625 99.9983 89.1208 98.8364 89.1208Z" fill="white"/>
<path d="M50.1636 61.8789C51.325 61.8789 52.2667 60.9373 52.2669 59.7758C52.2672 47.3259 57.1082 35.6281 65.8989 26.8375C74.6894 18.0467 86.3869 13.2056 98.8367 13.2062C99.9981 13.2062 100.94 12.2645 100.94 11.1031C100.94 9.94166 99.9983 9 98.8367 9C98.8359 9 98.8361 9 98.8351 9C85.2629 9 72.5092 14.2785 62.9246 23.8632C53.3395 33.4483 48.0605 46.2024 48.0603 59.7761C48.0603 60.9373 49.0017 61.8789 50.1636 61.8789V61.8789Z" fill="white"/>
<path d="M101.34 67.923C100.518 68.7442 100.518 70.0757 101.34 70.8971C119.497 89.0547 119.497 118.6 101.339 136.757C100.518 137.578 100.518 138.91 101.339 139.731C101.75 140.142 102.288 140.347 102.827 140.347C103.365 140.347 103.903 140.142 104.314 139.732C113.912 130.134 119.197 117.383 119.197 103.827C119.198 90.2719 113.912 77.521 104.315 67.923C103.493 67.1017 102.161 67.1017 101.34 67.923V67.923Z" fill="white"/>
<path d="M46.1733 83.6935C46.7115 83.6935 47.2497 83.488 47.6604 83.0773C48.4818 82.2562 48.4818 80.9246 47.6604 80.1032C29.5031 61.9454 29.5031 32.4001 47.6604 14.2426C48.4818 13.4212 48.4818 12.0896 47.6604 11.2683C46.839 10.4469 45.5077 10.4469 44.6861 11.2683C35.0885 20.8662 29.8028 33.6172 29.8028 47.1726C29.8028 60.7281 35.0883 73.4791 44.6861 83.0773C45.0968 83.4882 45.635 83.6935 46.1733 83.6935Z" fill="white"/>
<path d="M86.7103 81.3823C87.8216 81.7169 88.9957 81.0872 89.3308 79.9754C89.767 78.5293 89.9878 77.0234 89.9878 75.4999C89.9878 66.9597 83.0398 60.0117 74.4998 60.0117C65.9597 60.0117 59.012 66.9597 59.012 75.4999C59.012 84.04 65.96 90.9883 74.4998 90.9883C78.5511 90.9883 82.3829 89.4346 85.2881 86.6125C86.1212 85.8036 86.1412 84.472 85.3317 83.6387C84.5231 82.8056 83.1915 82.7856 82.3579 83.595C80.2414 85.6503 77.4504 86.7824 74.4992 86.7824C68.2786 86.7824 63.2176 81.7213 63.2176 75.5004C63.2176 69.2797 68.2786 64.2187 74.4992 64.2187C80.7199 64.2187 85.7809 69.2797 85.7809 75.5004C85.7809 76.6125 85.6201 77.7097 85.3032 78.762C84.9683 79.8741 85.5983 81.0472 86.7103 81.3823V81.3823Z" fill="white"/>
<path d="M74.3258 91.4525C83.0398 91.4525 90.1039 84.3883 90.1039 75.6742C90.1039 66.9602 83.0398 59.896 74.3258 59.896C65.6118 59.896 58.5477 66.9602 58.5477 75.6742C58.5477 84.3883 65.6118 91.4525 74.3258 91.4525Z" fill="white" stroke="white" stroke-width="0.557618"/>
</g>
<defs>
<clipPath id="clip0_201_20">
<rect width="133" height="133" fill="white" transform="translate(8 9)"/>
</clipPath>
</defs>
</svg>
